<mxfile host="app.diagrams.net" modified="2024-04-28T13:01:13.663Z" agent="Mozilla/5.0 (Macintosh; Intel Mac OS X 10_15_7) AppleWebKit/537.36 (KHTML, like Gecko) Chrome/124.0.0.0 Safari/537.36" etag="qhCbohfeBnSEaIuBLxDi" version="24.2.8" type="device">
  <diagram name="Page-1" id="K13aAz9G7tp2ZuIjCJgy">
    <mxGraphModel dx="2067" dy="1846" grid="1" gridSize="10" guides="1" tooltips="1" connect="1" arrows="1" fold="1" page="1" pageScale="1" pageWidth="827" pageHeight="1169" math="0" shadow="0">
      <root>
        <mxCell id="0" />
        <mxCell id="1" parent="0" />
        <mxCell id="5fe7tW6j3GPG9WdepG6b-52" value="" style="rounded=1;whiteSpace=wrap;html=1;" vertex="1" parent="1">
          <mxGeometry x="308.5" y="130" width="211" height="160" as="geometry" />
        </mxCell>
        <mxCell id="5fe7tW6j3GPG9WdepG6b-1" value="Lambda Proxy" style="rounded=0;whiteSpace=wrap;html=1;" vertex="1" parent="1">
          <mxGeometry x="354" y="310" width="120" height="60" as="geometry" />
        </mxCell>
        <mxCell id="5fe7tW6j3GPG9WdepG6b-2" value="DynamoDB&lt;div&gt;&lt;br&gt;&lt;/div&gt;" style="shape=cylinder3;whiteSpace=wrap;html=1;boundedLbl=1;backgroundOutline=1;size=15;" vertex="1" parent="1">
          <mxGeometry x="384" width="60" height="80" as="geometry" />
        </mxCell>
        <mxCell id="5fe7tW6j3GPG9WdepG6b-21" style="edgeStyle=orthogonalEdgeStyle;rounded=0;orthogonalLoop=1;jettySize=auto;html=1;exitX=0.5;exitY=0;exitDx=0;exitDy=0;" edge="1" parent="1" source="5fe7tW6j3GPG9WdepG6b-4" target="5fe7tW6j3GPG9WdepG6b-1">
          <mxGeometry relative="1" as="geometry" />
        </mxCell>
        <mxCell id="5fe7tW6j3GPG9WdepG6b-22" value="API Gateway Event Trigger" style="edgeLabel;html=1;align=center;verticalAlign=middle;resizable=0;points=[];" vertex="1" connectable="0" parent="5fe7tW6j3GPG9WdepG6b-21">
          <mxGeometry x="-0.0222" relative="1" as="geometry">
            <mxPoint as="offset" />
          </mxGeometry>
        </mxCell>
        <mxCell id="5fe7tW6j3GPG9WdepG6b-4" value="API Gateway" style="rounded=1;whiteSpace=wrap;html=1;" vertex="1" parent="1">
          <mxGeometry x="269" y="430" width="290" height="60" as="geometry" />
        </mxCell>
        <mxCell id="5fe7tW6j3GPG9WdepG6b-6" value="Lambda&lt;div&gt;Func&lt;/div&gt;" style="ellipse;whiteSpace=wrap;html=1;aspect=fixed;" vertex="1" parent="1">
          <mxGeometry x="329" y="210" width="50" height="50" as="geometry" />
        </mxCell>
        <mxCell id="5fe7tW6j3GPG9WdepG6b-8" value="Lambda&lt;div&gt;Func&lt;/div&gt;" style="ellipse;whiteSpace=wrap;html=1;aspect=fixed;" vertex="1" parent="1">
          <mxGeometry x="389" y="210" width="50" height="50" as="geometry" />
        </mxCell>
        <mxCell id="5fe7tW6j3GPG9WdepG6b-9" value="Lambda&lt;div&gt;Func&lt;/div&gt;" style="ellipse;whiteSpace=wrap;html=1;aspect=fixed;" vertex="1" parent="1">
          <mxGeometry x="449" y="210" width="50" height="50" as="geometry" />
        </mxCell>
        <mxCell id="5fe7tW6j3GPG9WdepG6b-12" value="Lambda&lt;div&gt;Func&lt;/div&gt;" style="ellipse;whiteSpace=wrap;html=1;aspect=fixed;" vertex="1" parent="1">
          <mxGeometry x="449" y="150" width="50" height="50" as="geometry" />
        </mxCell>
        <mxCell id="5fe7tW6j3GPG9WdepG6b-13" value="" style="endArrow=classic;startArrow=classic;html=1;rounded=0;exitX=0.5;exitY=1;exitDx=0;exitDy=0;" edge="1" parent="1" source="5fe7tW6j3GPG9WdepG6b-8" target="5fe7tW6j3GPG9WdepG6b-1">
          <mxGeometry width="50" height="50" relative="1" as="geometry">
            <mxPoint x="390" y="250" as="sourcePoint" />
            <mxPoint x="440" y="200" as="targetPoint" />
          </mxGeometry>
        </mxCell>
        <mxCell id="5fe7tW6j3GPG9WdepG6b-14" value="" style="endArrow=classic;startArrow=classic;html=1;rounded=0;entryX=0.5;entryY=1;entryDx=0;entryDy=0;exitX=0.5;exitY=0;exitDx=0;exitDy=0;" edge="1" parent="1" source="5fe7tW6j3GPG9WdepG6b-1" target="5fe7tW6j3GPG9WdepG6b-6">
          <mxGeometry width="50" height="50" relative="1" as="geometry">
            <mxPoint x="390" y="250" as="sourcePoint" />
            <mxPoint x="440" y="200" as="targetPoint" />
          </mxGeometry>
        </mxCell>
        <mxCell id="5fe7tW6j3GPG9WdepG6b-15" value="" style="endArrow=classic;startArrow=classic;html=1;rounded=0;entryX=0.38;entryY=1.02;entryDx=0;entryDy=0;entryPerimeter=0;exitX=0.5;exitY=0;exitDx=0;exitDy=0;" edge="1" parent="1" source="5fe7tW6j3GPG9WdepG6b-1" target="5fe7tW6j3GPG9WdepG6b-9">
          <mxGeometry width="50" height="50" relative="1" as="geometry">
            <mxPoint x="414" y="280" as="sourcePoint" />
            <mxPoint x="464" y="230" as="targetPoint" />
          </mxGeometry>
        </mxCell>
        <mxCell id="5fe7tW6j3GPG9WdepG6b-16" value="" style="endArrow=classic;startArrow=classic;html=1;rounded=0;exitX=0.5;exitY=0;exitDx=0;exitDy=0;entryX=0.5;entryY=1;entryDx=0;entryDy=0;entryPerimeter=0;" edge="1" parent="1" source="5fe7tW6j3GPG9WdepG6b-8" target="5fe7tW6j3GPG9WdepG6b-2">
          <mxGeometry width="50" height="50" relative="1" as="geometry">
            <mxPoint x="364" y="170" as="sourcePoint" />
            <mxPoint x="414" y="120" as="targetPoint" />
          </mxGeometry>
        </mxCell>
        <mxCell id="5fe7tW6j3GPG9WdepG6b-17" value="" style="endArrow=classic;startArrow=classic;html=1;rounded=0;exitX=0.5;exitY=0;exitDx=0;exitDy=0;entryX=0.5;entryY=1;entryDx=0;entryDy=0;entryPerimeter=0;" edge="1" parent="1" source="5fe7tW6j3GPG9WdepG6b-6" target="5fe7tW6j3GPG9WdepG6b-2">
          <mxGeometry width="50" height="50" relative="1" as="geometry">
            <mxPoint x="364" y="170" as="sourcePoint" />
            <mxPoint x="414" y="120" as="targetPoint" />
          </mxGeometry>
        </mxCell>
        <mxCell id="5fe7tW6j3GPG9WdepG6b-18" value="" style="endArrow=classic;startArrow=classic;html=1;rounded=0;entryX=0.5;entryY=0;entryDx=0;entryDy=0;exitX=0.5;exitY=1;exitDx=0;exitDy=0;exitPerimeter=0;" edge="1" parent="1" source="5fe7tW6j3GPG9WdepG6b-2" target="5fe7tW6j3GPG9WdepG6b-12">
          <mxGeometry width="50" height="50" relative="1" as="geometry">
            <mxPoint x="390" y="250" as="sourcePoint" />
            <mxPoint x="440" y="200" as="targetPoint" />
          </mxGeometry>
        </mxCell>
        <mxCell id="5fe7tW6j3GPG9WdepG6b-25" style="edgeStyle=orthogonalEdgeStyle;rounded=0;orthogonalLoop=1;jettySize=auto;html=1;entryX=0.5;entryY=1;entryDx=0;entryDy=0;" edge="1" parent="1" source="5fe7tW6j3GPG9WdepG6b-24" target="5fe7tW6j3GPG9WdepG6b-4">
          <mxGeometry relative="1" as="geometry" />
        </mxCell>
        <mxCell id="5fe7tW6j3GPG9WdepG6b-26" value="Http Event" style="edgeLabel;html=1;align=center;verticalAlign=middle;resizable=0;points=[];" vertex="1" connectable="0" parent="5fe7tW6j3GPG9WdepG6b-25">
          <mxGeometry x="-0.025" y="1" relative="1" as="geometry">
            <mxPoint as="offset" />
          </mxGeometry>
        </mxCell>
        <mxCell id="5fe7tW6j3GPG9WdepG6b-24" value="Actor" style="shape=umlActor;verticalLabelPosition=bottom;verticalAlign=top;html=1;outlineConnect=0;" vertex="1" parent="1">
          <mxGeometry x="399" y="570" width="30" height="45" as="geometry" />
        </mxCell>
        <mxCell id="5fe7tW6j3GPG9WdepG6b-37" style="edgeStyle=orthogonalEdgeStyle;rounded=0;orthogonalLoop=1;jettySize=auto;html=1;exitX=0;exitY=0.5;exitDx=0;exitDy=0;dashed=1;entryX=1;entryY=0.5;entryDx=0;entryDy=0;" edge="1" parent="1" source="5fe7tW6j3GPG9WdepG6b-27" target="5fe7tW6j3GPG9WdepG6b-52">
          <mxGeometry relative="1" as="geometry">
            <mxPoint x="550" y="220" as="targetPoint" />
            <Array as="points">
              <mxPoint x="550" y="310" />
              <mxPoint x="550" y="251" />
              <mxPoint x="551" y="251" />
              <mxPoint x="551" y="210" />
            </Array>
          </mxGeometry>
        </mxCell>
        <mxCell id="5fe7tW6j3GPG9WdepG6b-38" value="Assume&lt;div&gt;Role&lt;/div&gt;" style="edgeLabel;html=1;align=center;verticalAlign=middle;resizable=0;points=[];" vertex="1" connectable="0" parent="5fe7tW6j3GPG9WdepG6b-37">
          <mxGeometry x="-0.1786" relative="1" as="geometry">
            <mxPoint as="offset" />
          </mxGeometry>
        </mxCell>
        <mxCell id="5fe7tW6j3GPG9WdepG6b-27" value="AWS IAM Role&lt;div&gt;(serverless_lambda)&lt;/div&gt;" style="rounded=0;whiteSpace=wrap;html=1;" vertex="1" parent="1">
          <mxGeometry x="570" y="280" width="120" height="60" as="geometry" />
        </mxCell>
        <mxCell id="5fe7tW6j3GPG9WdepG6b-32" style="edgeStyle=orthogonalEdgeStyle;rounded=0;orthogonalLoop=1;jettySize=auto;html=1;exitX=0;exitY=0.5;exitDx=0;exitDy=0;entryX=1;entryY=0.5;entryDx=0;entryDy=0;" edge="1" parent="1" source="5fe7tW6j3GPG9WdepG6b-28" target="5fe7tW6j3GPG9WdepG6b-27">
          <mxGeometry relative="1" as="geometry" />
        </mxCell>
        <mxCell id="5fe7tW6j3GPG9WdepG6b-28" value="&lt;div style=&quot;&quot;&gt;&lt;div&gt;&lt;b&gt;AWSLambdaBasicExecutionRole:&lt;/b&gt;&lt;/div&gt;&lt;div&gt;&lt;b&gt;(AWS Managed Policy)&lt;/b&gt;&lt;/div&gt;&lt;div&gt;{&lt;/div&gt;&lt;div&gt;&amp;nbsp; &amp;nbsp; &quot;Version&quot;: &quot;2012-10-17&quot;,&lt;/div&gt;&lt;div&gt;&amp;nbsp; &amp;nbsp; &quot;Statement&quot;: [&lt;/div&gt;&lt;div&gt;&amp;nbsp; &amp;nbsp; &amp;nbsp; &amp;nbsp; {&lt;/div&gt;&lt;div&gt;&amp;nbsp; &amp;nbsp; &amp;nbsp; &amp;nbsp; &amp;nbsp; &amp;nbsp; &quot;Effect&quot;: &quot;Allow&quot;,&lt;/div&gt;&lt;div&gt;&amp;nbsp; &amp;nbsp; &amp;nbsp; &amp;nbsp; &amp;nbsp; &amp;nbsp; &quot;Action&quot;: [&lt;/div&gt;&lt;div&gt;&amp;nbsp; &amp;nbsp; &amp;nbsp; &amp;nbsp; &amp;nbsp; &amp;nbsp; &amp;nbsp; &amp;nbsp; &quot;logs:CreateLogGroup&quot;,&lt;/div&gt;&lt;div&gt;&amp;nbsp; &amp;nbsp; &amp;nbsp; &amp;nbsp; &amp;nbsp; &amp;nbsp; &amp;nbsp; &amp;nbsp; &quot;logs:CreateLogStream&quot;,&lt;/div&gt;&lt;div&gt;&amp;nbsp; &amp;nbsp; &amp;nbsp; &amp;nbsp; &amp;nbsp; &amp;nbsp; &amp;nbsp; &amp;nbsp; &quot;logs:PutLogEvents&quot;&lt;/div&gt;&lt;div&gt;&amp;nbsp; &amp;nbsp; &amp;nbsp; &amp;nbsp; &amp;nbsp; &amp;nbsp; ],&lt;/div&gt;&lt;div&gt;&amp;nbsp; &amp;nbsp; &amp;nbsp; &amp;nbsp; &amp;nbsp; &amp;nbsp; &quot;Resource&quot;: &quot;*&quot;&lt;/div&gt;&lt;div&gt;&amp;nbsp; &amp;nbsp; &amp;nbsp; &amp;nbsp; }&lt;/div&gt;&lt;div&gt;&amp;nbsp; &amp;nbsp; ]&lt;/div&gt;&lt;div&gt;}&lt;/div&gt;&lt;/div&gt;" style="rounded=0;whiteSpace=wrap;html=1;align=left;strokeColor=default;gradientColor=none;verticalAlign=top;" vertex="1" parent="1">
          <mxGeometry x="780" y="60" width="200" height="240" as="geometry" />
        </mxCell>
        <mxCell id="5fe7tW6j3GPG9WdepG6b-31" style="edgeStyle=orthogonalEdgeStyle;rounded=0;orthogonalLoop=1;jettySize=auto;html=1;exitX=0;exitY=0.5;exitDx=0;exitDy=0;" edge="1" parent="1" source="5fe7tW6j3GPG9WdepG6b-30" target="5fe7tW6j3GPG9WdepG6b-27">
          <mxGeometry relative="1" as="geometry" />
        </mxCell>
        <mxCell id="5fe7tW6j3GPG9WdepG6b-30" value="&lt;div style=&quot;&quot;&gt;&lt;div&gt;&lt;b&gt;dynamo_lambda_policy:&lt;/b&gt;&lt;/div&gt;&lt;div&gt;&lt;b&gt;(AWS Managed Policy)&lt;/b&gt;&lt;/div&gt;&lt;div&gt;{&lt;/div&gt;&lt;div&gt;&amp;nbsp; &amp;nbsp; &quot;Version&quot;: &quot;2012-10-17&quot;,&lt;/div&gt;&lt;div&gt;&amp;nbsp; &amp;nbsp; &quot;Statement&quot;: [&lt;/div&gt;&lt;div&gt;&amp;nbsp; &amp;nbsp; &amp;nbsp; &amp;nbsp; {&lt;/div&gt;&lt;div&gt;&amp;nbsp; &amp;nbsp; &amp;nbsp; &amp;nbsp; &amp;nbsp; &amp;nbsp; &quot;Effect&quot;: &quot;Allow&quot;,&lt;/div&gt;&lt;div&gt;&amp;nbsp; &amp;nbsp; &amp;nbsp; &amp;nbsp; &amp;nbsp; &amp;nbsp; &quot;Action&quot;: [&lt;/div&gt;&lt;div&gt;&amp;nbsp; &amp;nbsp; &amp;nbsp; &amp;nbsp; &amp;nbsp; &amp;nbsp; &amp;nbsp; &amp;nbsp; &quot;logs:CreateLogGroup&quot;,&lt;/div&gt;&lt;div&gt;&amp;nbsp; &amp;nbsp; &amp;nbsp; &amp;nbsp; &amp;nbsp; &amp;nbsp; &amp;nbsp; &amp;nbsp; &quot;logs:CreateLogStream&quot;,&lt;/div&gt;&lt;div&gt;&amp;nbsp; &amp;nbsp; &amp;nbsp; &amp;nbsp; &amp;nbsp; &amp;nbsp; &amp;nbsp; &amp;nbsp; &quot;logs:PutLogEvents&quot;&lt;/div&gt;&lt;div&gt;&amp;nbsp; &amp;nbsp; &amp;nbsp; &amp;nbsp; &amp;nbsp; &amp;nbsp; ],&lt;/div&gt;&lt;div&gt;&amp;nbsp; &amp;nbsp; &amp;nbsp; &amp;nbsp; &amp;nbsp; &amp;nbsp; &quot;Resource&quot;: &quot;*&quot;&lt;/div&gt;&lt;div&gt;&amp;nbsp; &amp;nbsp; &amp;nbsp; &amp;nbsp; }&lt;/div&gt;&lt;div&gt;&amp;nbsp; &amp;nbsp; ]&lt;/div&gt;&lt;div&gt;}&lt;/div&gt;&lt;/div&gt;" style="rounded=0;whiteSpace=wrap;html=1;align=left;strokeColor=default;gradientColor=none;verticalAlign=top;" vertex="1" parent="1">
          <mxGeometry x="780" y="320" width="200" height="240" as="geometry" />
        </mxCell>
        <mxCell id="5fe7tW6j3GPG9WdepG6b-33" value="Student" style="swimlane;fontStyle=0;childLayout=stackLayout;horizontal=1;startSize=30;horizontalStack=0;resizeParent=1;resizeParentMax=0;resizeLast=0;collapsible=1;marginBottom=0;whiteSpace=wrap;html=1;" vertex="1" parent="1">
          <mxGeometry x="90" y="-40" width="140" height="120" as="geometry" />
        </mxCell>
        <mxCell id="5fe7tW6j3GPG9WdepG6b-34" value="Tom" style="text;strokeColor=none;fillColor=none;align=left;verticalAlign=middle;spacingLeft=4;spacingRight=4;overflow=hidden;points=[[0,0.5],[1,0.5]];portConstraint=eastwest;rotatable=0;whiteSpace=wrap;html=1;" vertex="1" parent="5fe7tW6j3GPG9WdepG6b-33">
          <mxGeometry y="30" width="140" height="30" as="geometry" />
        </mxCell>
        <mxCell id="5fe7tW6j3GPG9WdepG6b-35" value="James" style="text;strokeColor=none;fillColor=none;align=left;verticalAlign=middle;spacingLeft=4;spacingRight=4;overflow=hidden;points=[[0,0.5],[1,0.5]];portConstraint=eastwest;rotatable=0;whiteSpace=wrap;html=1;" vertex="1" parent="5fe7tW6j3GPG9WdepG6b-33">
          <mxGeometry y="60" width="140" height="30" as="geometry" />
        </mxCell>
        <mxCell id="5fe7tW6j3GPG9WdepG6b-36" value="Henry" style="text;strokeColor=none;fillColor=none;align=left;verticalAlign=middle;spacingLeft=4;spacingRight=4;overflow=hidden;points=[[0,0.5],[1,0.5]];portConstraint=eastwest;rotatable=0;whiteSpace=wrap;html=1;" vertex="1" parent="5fe7tW6j3GPG9WdepG6b-33">
          <mxGeometry y="90" width="140" height="30" as="geometry" />
        </mxCell>
        <mxCell id="5fe7tW6j3GPG9WdepG6b-41" style="edgeStyle=orthogonalEdgeStyle;rounded=0;orthogonalLoop=1;jettySize=auto;html=1;exitX=1;exitY=0.5;exitDx=0;exitDy=0;entryX=0;entryY=0.5;entryDx=0;entryDy=0;entryPerimeter=0;dashed=1;dashPattern=8 8;" edge="1" parent="1" source="5fe7tW6j3GPG9WdepG6b-35" target="5fe7tW6j3GPG9WdepG6b-2">
          <mxGeometry relative="1" as="geometry" />
        </mxCell>
        <mxCell id="5fe7tW6j3GPG9WdepG6b-53" style="edgeStyle=orthogonalEdgeStyle;rounded=0;orthogonalLoop=1;jettySize=auto;html=1;entryX=0;entryY=0.5;entryDx=0;entryDy=0;dashed=1;dashPattern=8 8;" edge="1" parent="1" source="5fe7tW6j3GPG9WdepG6b-45" target="5fe7tW6j3GPG9WdepG6b-12">
          <mxGeometry relative="1" as="geometry" />
        </mxCell>
        <mxCell id="5fe7tW6j3GPG9WdepG6b-54" style="edgeStyle=orthogonalEdgeStyle;rounded=0;orthogonalLoop=1;jettySize=auto;html=1;entryX=0.34;entryY=1;entryDx=0;entryDy=0;entryPerimeter=0;dashed=1;dashPattern=12 12;" edge="1" parent="1" target="5fe7tW6j3GPG9WdepG6b-6">
          <mxGeometry relative="1" as="geometry">
            <mxPoint x="330" y="310" as="targetPoint" />
            <mxPoint x="140" y="280" as="sourcePoint" />
            <Array as="points">
              <mxPoint x="346" y="300" />
            </Array>
          </mxGeometry>
        </mxCell>
        <mxCell id="5fe7tW6j3GPG9WdepG6b-45" value="Amazon S3" style="sketch=0;outlineConnect=0;fontColor=#232F3E;gradientColor=none;strokeColor=#ffffff;fillColor=#232F3E;dashed=0;verticalLabelPosition=middle;verticalAlign=bottom;align=center;html=1;whiteSpace=wrap;fontSize=10;fontStyle=1;spacing=3;shape=mxgraph.aws4.productIcon;prIcon=mxgraph.aws4.s3;" vertex="1" parent="1">
          <mxGeometry x="60" y="230" width="60" height="90" as="geometry" />
        </mxCell>
        <mxCell id="5fe7tW6j3GPG9WdepG6b-51" style="rounded=0;orthogonalLoop=1;jettySize=auto;html=1;" edge="1" parent="1" source="5fe7tW6j3GPG9WdepG6b-46" target="5fe7tW6j3GPG9WdepG6b-45">
          <mxGeometry relative="1" as="geometry" />
        </mxCell>
        <mxCell id="5fe7tW6j3GPG9WdepG6b-46" value="getStudents.zip" style="shape=image;html=1;verticalAlign=top;verticalLabelPosition=bottom;labelBackgroundColor=#ffffff;imageAspect=0;aspect=fixed;image=https://cdn4.iconfinder.com/data/icons/spirit20/file-zip.png" vertex="1" parent="1">
          <mxGeometry x="10" y="390" width="40" height="40" as="geometry" />
        </mxCell>
        <mxCell id="5fe7tW6j3GPG9WdepG6b-50" style="rounded=0;orthogonalLoop=1;jettySize=auto;html=1;" edge="1" parent="1" source="5fe7tW6j3GPG9WdepG6b-47" target="5fe7tW6j3GPG9WdepG6b-45">
          <mxGeometry relative="1" as="geometry" />
        </mxCell>
        <mxCell id="5fe7tW6j3GPG9WdepG6b-47" value="hello-world.zip" style="shape=image;html=1;verticalAlign=top;verticalLabelPosition=bottom;labelBackgroundColor=#ffffff;imageAspect=0;aspect=fixed;image=https://cdn4.iconfinder.com/data/icons/spirit20/file-zip.png" vertex="1" parent="1">
          <mxGeometry x="120" y="390" width="40" height="40" as="geometry" />
        </mxCell>
      </root>
    </mxGraphModel>
  </diagram>
</mxfile>
